<svg width="40" height="40" viewBox="0 0 40 40" fill="none" xmlns="http://www.w3.org/2000/svg">
<g clip-path="url(#clip0_63_59)">
<path fill-rule="evenodd" clip-rule="evenodd" d="M31.3881 1.67259C38.1691 9.98654 37.6847 22.2503 29.935 30C21.9057 38.0293 9.03071 38.2595 0.723515 30.6907C0.712137 30.6803 0.700768 30.67 0.689408 30.6596C0.455905 30.4459 0.226032 30.226 0 30L29.935 0.0649728C30.1721 0.301999 30.4023 0.543248 30.6257 0.788477C30.6257 0.788481 30.6257 0.788484 30.6257 0.788488C30.8893 1.07778 31.1434 1.37261 31.3881 1.67259Z" fill="url(#paint0_linear_63_59)"/>
<path d="M27.2078 3.49931C30.2597 6.73468 31.7861 10.8826 31.7861 15.0326C31.786 19.3376 30.1439 23.6409 26.8598 26.925C23.5757 30.209 19.2724 31.8513 14.9674 31.8512C10.8175 31.8512 6.66945 30.3248 3.43413 27.273L27.2078 3.49931Z" fill="#F3CE70" stroke="#F3CE70"/>
<path d="M27.1919 4.2223C29.9213 7.30266 31.2861 11.1661 31.2861 15.0326C31.2861 19.2104 29.6928 23.3849 26.5062 26.5714C23.3197 29.7579 19.1452 31.3513 14.9674 31.3513C11.101 31.3513 7.23811 29.9857 4.15781 27.2564L27.1919 4.2223Z" stroke="#705F8C" stroke-width="2"/>
</g>
<defs>
<linearGradient id="paint0_linear_63_59" x1="14.9675" y1="15.0325" x2="26.9872" y2="27.0522" gradientUnits="userSpaceOnUse">
<stop stop-color="#705F8C"/>
<stop offset="1" stop-color="#705F8C" stop-opacity="0"/>
</linearGradient>
<clipPath id="clip0_63_59">
<rect width="40" height="40" fill="white"/>
</clipPath>
</defs>
</svg>
