<svg width="45" height="34" viewBox="0 0 45 34" fill="none" xmlns="http://www.w3.org/2000/svg">
<path fill-rule="evenodd" clip-rule="evenodd" d="M42.4827 2.00921C40.701 0.227536 38.1132 -0.303889 35.4661 0.158013C32.8165 0.620372 30.0353 2.0823 27.7168 4.40072C25.3984 6.71915 23.9365 9.50037 23.4741 12.15C23.0342 14.6714 23.4954 17.1391 25.08 18.9075L2.53874e-05 40.8438L4.27667 45.1204L26.2851 19.958C27.9757 21.0985 30.1383 21.4023 32.3419 21.0178C34.9916 20.5554 37.7728 19.0935 40.0912 16.7751C42.4096 14.4567 43.8716 11.6754 44.3339 9.02577C44.7958 6.37872 44.2644 3.79088 42.4827 2.00921Z" fill="url(#paint0_linear_2_562)"/>
<defs>
<linearGradient id="paint0_linear_2_562" x1="42.4827" y1="2.00921" x2="9.83176" y2="34.6602" gradientUnits="userSpaceOnUse">
<stop stop-color="#705F8C"/>
<stop offset="1" stop-color="#705F8C" stop-opacity="0"/>
</linearGradient>
</defs>
</svg>
