<svg width="40" height="40" viewBox="0 0 40 40" fill="none" xmlns="http://www.w3.org/2000/svg">
<g clip-path="url(#clip0_63_52)">
<path fill-rule="evenodd" clip-rule="evenodd" d="M34.1872 6.18718C32.4055 4.40551 29.8177 3.87409 27.1706 4.33599C24.5209 4.79835 21.7397 6.26027 19.4213 8.5787C17.1029 10.8971 15.6409 13.6783 15.1786 16.328C14.7386 18.8494 15.1999 21.3171 16.7844 23.0854L-8.29551 45.0218L-4.01886 49.2984L17.9896 24.136C19.6802 25.2764 21.8428 25.5803 24.0464 25.1958C26.696 24.7334 29.4772 23.2715 31.7957 20.9531C34.1141 18.6346 35.576 15.8534 36.0384 13.2038C36.5003 10.5567 35.9689 7.96885 34.1872 6.18718Z" fill="url(#paint0_linear_63_52)"/>
<path d="M18.6147 21.3739C21.4549 24.2141 26.8054 23.4685 30.5653 19.7085C33.1015 17.1723 34.2662 13.9123 33.884 11.1873L17.1811 18.9506C17.4575 19.8652 17.9328 20.6919 18.6147 21.3739Z" fill="#F3CE70"/>
</g>
<defs>
<linearGradient id="paint0_linear_63_52" x1="34.1872" y1="6.18718" x2="1.53623" y2="38.8381" gradientUnits="userSpaceOnUse">
<stop stop-color="#705F8C"/>
<stop offset="1" stop-color="#705F8C" stop-opacity="0"/>
</linearGradient>
<clipPath id="clip0_63_52">
<rect width="40" height="40" fill="white"/>
</clipPath>
</defs>
</svg>
